<svg xmlns="http://www.w3.org/2000/svg" version="1.1" xmlns:xlink="http://www.w3.org/1999/xlink"
  width="512" height="512" x="0" y="0" viewBox="0 0 64 64" style="enable-background:new 0 0 512 512"
  xml:space="preserve" class=""><g><rect width="20" height="20" x="22" y="22" fill="#f9d266" rx="4" opacity="1" data-original="#f9d266" class=""></rect><path fill="#fce797" d="M26 22a4 4 0 0 0-4 4v12a3.974 3.974 0 0 0 .108.892A3.974 3.974 0 0 0 23 39h12a4 4 0 0 0 4-4V23a3.974 3.974 0 0 0-.108-.892A3.974 3.974 0 0 0 38 22z" opacity="1" data-original="#fce797" class=""></path><rect width="20" height="20" x="2" y="22" fill="#5e87ca" rx="4" opacity="1" data-original="#5e87ca" class=""></rect><path fill="#78a0d4" d="M6 22a4 4 0 0 0-4 4v12a3.974 3.974 0 0 0 .108.892A3.974 3.974 0 0 0 3 39h12a4 4 0 0 0 4-4V23a3.974 3.974 0 0 0-.108-.892A3.974 3.974 0 0 0 18 22z" opacity="1" data-original="#78a0d4" class=""></path><rect width="20" height="20" x="2" y="42" fill="#6bc13b" rx="4" opacity="1" data-original="#6bc13b" class=""></rect><path fill="#7bdf45" d="M6 42a4 4 0 0 0-4 4v12a3.974 3.974 0 0 0 .108.892A3.974 3.974 0 0 0 3 59h12a4 4 0 0 0 4-4V43a3.974 3.974 0 0 0-.108-.892A3.974 3.974 0 0 0 18 42z" opacity="1" data-original="#7bdf45" class=""></path><rect width="20" height="20" x="22" y="42" fill="#e1656e" rx="4" opacity="1" data-original="#e1656e" class=""></rect><path fill="#f29b99" d="M26 42a4 4 0 0 0-4 4v12a3.974 3.974 0 0 0 .108.892A3.974 3.974 0 0 0 23 59h12a4 4 0 0 0 4-4V43a3.974 3.974 0 0 0-.108-.892A3.974 3.974 0 0 0 38 42z" opacity="1" data-original="#f29b99" class=""></path><rect width="20" height="20" x="42" y="42" fill="#f0ae42" rx="4" opacity="1" data-original="#f0ae42"></rect><path fill="#f9d266" d="M46 42a4 4 0 0 0-4 4v12a3.974 3.974 0 0 0 .108.892A3.974 3.974 0 0 0 43 59h12a4 4 0 0 0 4-4V43a3.974 3.974 0 0 0-.108-.892A3.974 3.974 0 0 0 58 42z" opacity="1" data-original="#f9d266" class=""></path><rect width="20" height="20" x="42" y="22" fill="#5e87ca" rx="4" opacity="1" data-original="#5e87ca" class=""></rect><path fill="#78a0d4" d="M46 22a4 4 0 0 0-4 4v12a3.974 3.974 0 0 0 .108.892A3.974 3.974 0 0 0 43 39h12a4 4 0 0 0 4-4V23a3.974 3.974 0 0 0-.108-.892A3.974 3.974 0 0 0 58 22z" opacity="1" data-original="#78a0d4" class=""></path><rect width="20" height="20" x="42" y="2" fill="#e1656e" rx="4" opacity="1" data-original="#e1656e" class=""></rect><path fill="#f29b99" d="M46 2a4 4 0 0 0-4 4v12a3.974 3.974 0 0 0 .108.892A3.974 3.974 0 0 0 43 19h12a4 4 0 0 0 4-4V3a3.974 3.974 0 0 0-.108-.892A3.974 3.974 0 0 0 58 2z" opacity="1" data-original="#f29b99" class=""></path><rect width="20" height="20" x="11.515" y="4.515" fill="#6bc13b" rx="4" transform="rotate(-45 21.513 14.52)" opacity="1" data-original="#6bc13b" class=""></rect><path fill="#7bdf45" d="M24.343 3.2a4 4 0 0 0-5.657 0L10.2 11.686a3.94 3.94 0 0 0-.618.829 3.934 3.934 0 0 0 .618.828l8.485 8.485a4 4 0 0 0 5.657 0l8.485-8.485a3.974 3.974 0 0 0 .619-.828 3.979 3.979 0 0 0-.619-.829z" opacity="1" data-original="#7bdf45" class=""></path><g fill="#686868"><path d="m25.051 18.05-5.657-5.656-.415.414v2.414h-2v-2.828a1 1 0 0 1 .293-.707l1.415-1.415a1.029 1.029 0 0 1 1.414 0l6.364 6.364zM56 17h-7a1 1 0 0 1-1-1v-4a1 1 0 0 1 1-1h5V9h-6V7h7a1 1 0 0 1 1 1v4a1 1 0 0 1-1 1h-5v2h6zM55 37h-7v-2h6v-2h-5a1 1 0 0 1-1-1v-4a1 1 0 0 1 1-1h7v2h-6v2h5a1 1 0 0 1 1 1v4a1 1 0 0 1-1 1zM15 57H9a1 1 0 0 1-1-1v-8a1 1 0 0 1 1-1h6a1 1 0 0 1 1 1v2h-2v-1h-4v2h5a1 1 0 0 1 1 1v4a1 1 0 0 1-1 1zm-5-2h4v-2h-4zM13 37H9v-2h4a1 1 0 0 0 0-2h-2a1 1 0 0 1 0-2h2a1 1 0 0 0 0-2H9v-2h4a3 3 0 0 1 2.234 5A3 3 0 0 1 13 37zM37 31h-2v-4h-2v4h-2.78l.76-3.8-1.96-.4-1 5A1 1 0 0 0 29 33h4v4h2v-4h2zM33.977 57.217l-1.954-.434L33.753 49h-3.365l.56 1.684-1.9.632-1-3A1 1 0 0 1 29 47h6a1 1 0 0 1 .977 1.217zM56 50a3 3 0 0 0-3-3h-2a2.987 2.987 0 0 0-2.22 5A2.987 2.987 0 0 0 51 57h2a2.987 2.987 0 0 0 2.22-5 2.981 2.981 0 0 0 .78-2zm-5-1h2a1 1 0 0 1 0 2h-2a1 1 0 0 1 0-2zm2 6h-2a1 1 0 0 1 0-2h2a1 1 0 0 1 0 2z" fill="#686868" opacity="1" data-original="#686868"></path></g><path d="M63 18V6a5.006 5.006 0 0 0-5-5H46a5.006 5.006 0 0 0-5 5v12a4.982 4.982 0 0 0 2.031 4A4.988 4.988 0 0 0 42 23.031 4.982 4.982 0 0 0 38 21h-7.415l2.95-2.95a5 5 0 0 0 0-7.071L25.05 2.494a5 5 0 0 0-7.071 0l-8.485 8.485a5 5 0 0 0 0 7.071l2.95 2.95H6a5.006 5.006 0 0 0-5 5v12a4.982 4.982 0 0 0 2.031 4A4.982 4.982 0 0 0 1 46v12a5.006 5.006 0 0 0 5 5h12a4.982 4.982 0 0 0 4-2.031A4.982 4.982 0 0 0 26 63h12a4.982 4.982 0 0 0 4-2.031A4.982 4.982 0 0 0 46 63h12a5.006 5.006 0 0 0 5-5V46a4.982 4.982 0 0 0-2.031-4A4.982 4.982 0 0 0 63 38V26a4.982 4.982 0 0 0-2.031-4A4.982 4.982 0 0 0 63 18zm-25 5a3 3 0 0 1 3 3v12a3 3 0 0 1-3 3H26a3 3 0 0 1-3-3V27.752a4.955 4.955 0 0 0 2.05-1.216L28.585 23zm5.031 19A4.988 4.988 0 0 0 42 43.031 4.988 4.988 0 0 0 40.969 42 4.988 4.988 0 0 0 42 40.969 4.988 4.988 0 0 0 43.031 42zM22 43.031A4.988 4.988 0 0 0 20.969 42 4.988 4.988 0 0 0 22 40.969 4.988 4.988 0 0 0 23.031 42 4.988 4.988 0 0 0 22 43.031zM10.029 14.515a2.98 2.98 0 0 1 .879-2.121l8.486-8.486a3 3 0 0 1 4.242 0l8.485 8.486a3 3 0 0 1 0 4.242l-8.485 8.486a3.074 3.074 0 0 1-4.242 0l-8.486-8.486a2.984 2.984 0 0 1-.879-2.121zM3 38V26a3 3 0 0 1 3-3h8.444l3.535 3.536A4.952 4.952 0 0 0 21 27.95V38a3 3 0 0 1-3 3H6a3 3 0 0 1-3-3zm15 23H6a3 3 0 0 1-3-3V46a3 3 0 0 1 3-3h12a3 3 0 0 1 3 3v12a3 3 0 0 1-3 3zm20 0H26a3 3 0 0 1-3-3V46a3 3 0 0 1 3-3h12a3 3 0 0 1 3 3v12a3 3 0 0 1-3 3zm23-15v12a3 3 0 0 1-3 3H46a3 3 0 0 1-3-3V46a3 3 0 0 1 3-3h12a3 3 0 0 1 3 3zm0-20v12a3 3 0 0 1-3 3H46a3 3 0 0 1-3-3V26a3 3 0 0 1 3-3h12a3 3 0 0 1 3 3zm0-8a3 3 0 0 1-3 3H46a3 3 0 0 1-3-3V6a3 3 0 0 1 3-3h12a3 3 0 0 1 3 3z" fill="#000000" opacity="1" data-original="#000000" class=""></path><path d="m25.051 18.05 1.414-1.414-6.365-6.364a1.029 1.029 0 0 0-1.414 0l-1.415 1.415a1 1 0 0 0-.293.707v2.828h2v-2.414l.415-.414zM55 7h-7v2h6v2h-5a1 1 0 0 0-1 1v4a1 1 0 0 0 1 1h7v-2h-6v-2h5a1 1 0 0 0 1-1V8a1 1 0 0 0-1-1zM56 36v-4a1 1 0 0 0-1-1h-5v-2h6v-2h-7a1 1 0 0 0-1 1v4a1 1 0 0 0 1 1h5v2h-6v2h7a1 1 0 0 0 1-1zM15 47H9a1 1 0 0 0-1 1v8a1 1 0 0 0 1 1h6a1 1 0 0 0 1-1v-4a1 1 0 0 0-1-1h-5v-2h4v1h2v-2a1 1 0 0 0-1-1zm-1 6v2h-4v-2zM13 27H9v2h4a1 1 0 0 1 0 2h-2a1 1 0 0 0 0 2h2a1 1 0 0 1 0 2H9v2h4a3 3 0 0 0 2.234-5A3 3 0 0 0 13 27zM29 33h4v4h2v-4h2v-2h-2v-4h-2v4h-2.78l.76-3.8-1.96-.4-1 5A1 1 0 0 0 29 33zM35 47h-6a1 1 0 0 0-.948 1.316l1 3 1.9-.632L30.388 49h3.365l-1.73 7.783 1.954.434 2-9A1 1 0 0 0 35 47zM51 57h2a2.987 2.987 0 0 0 2.22-5A2.987 2.987 0 0 0 53 47h-2a2.987 2.987 0 0 0-2.22 5A2.987 2.987 0 0 0 51 57zm2-2h-2a1 1 0 0 1 0-2h2a1 1 0 0 1 0 2zm-2-6h2a1 1 0 0 1 0 2h-2a1 1 0 0 1 0-2z" fill="#000000" opacity="1" data-original="#000000" class=""></path></g></svg>